<?xml version="1.0" encoding="UTF-8"?>
<svg version="1.1" xmlns="http://www.w3.org/2000/svg" width="321" height="316">
<path d="M0 0 C105.93 0 211.86 0 321 0 C321 104.28 321 208.56 321 316 C215.07 316 109.14 316 0 316 C0 211.72 0 107.44 0 0 Z " fill="#F6F6F6" transform="translate(0,0)"/>
<path d="M0 0 C0.95053253 -0.00817749 1.90106506 -0.01635498 2.88040161 -0.02478027 C6.01742951 -0.04953081 9.15441228 -0.066129 12.29150391 -0.08056641 C13.3692873 -0.08589008 14.44707069 -0.09121376 15.55751419 -0.09669876 C21.26880429 -0.12339289 26.98007288 -0.14277475 32.69140625 -0.15722656 C37.3914757 -0.17052696 42.09110703 -0.19831356 46.79101562 -0.23925781 C52.49089347 -0.28889942 58.19037624 -0.31338648 63.89046097 -0.32045364 C66.04874617 -0.32711602 68.2070243 -0.34220489 70.36518478 -0.36634445 C91.75595751 -0.59184663 109.4107776 3.29860291 125.62744141 18.35693359 C128.88250257 21.74162108 131.69877444 25.35112773 134.39306641 29.19287109 C134.93060547 29.95341797 135.46814453 30.71396484 136.02197266 31.49755859 C143.53365633 42.98158627 147.02251825 58.24107454 144.98681641 71.92333984 C140.30536222 88.11336889 122.74674998 97.44082466 108.94775391 105.10693359 C94.61580594 112.51775863 80.20570894 117.20371371 64.39306641 120.19287109 C63.26900391 120.41974609 62.14494141 120.64662109 60.98681641 120.88037109 C44.27297496 123.80123659 26.83702916 123.21289149 10.39306641 119.19287109 C9.11818359 118.91443359 7.84330078 118.63599609 6.52978516 118.34912109 C-7.95602852 115.09691038 -22.15919812 110.38516501 -34.60693359 102.19287109 C-36.20414759 101.30524328 -37.80828761 100.42995247 -39.41943359 99.56787109 C-42.78310532 97.71814619 -45.66319649 95.6718076 -48.60693359 93.19287109 C-49.40357422 92.67660156 -49.40357422 92.67660156 -50.21630859 92.14990234 C-56.90325777 87.81522068 -62.68311098 81.30120434 -65.17724609 73.61865234 C-68.17455694 56.69747018 -62.95939572 40.86156436 -53.60693359 26.85302734 C-43.46043314 13.35738904 -29.59001259 4.12164509 -13.00570679 0.64804077 C-8.65490801 0.06537415 -4.38501128 0.0210273 0 0 Z " fill="#C8C7C3" transform="translate(125.60693359375,178.80712890625)"/>
<path d="M0 0 C8.89044675 7.38240253 18.77701017 19.11989405 20.29296875 30.89453125 C20.33421875 31.98765625 20.37546875 33.08078125 20.41796875 34.20703125 C21.07796875 34.20703125 21.73796875 34.20703125 22.41796875 34.20703125 C25.20287357 53.90349518 23.82448249 72.39002632 12.41796875 89.20703125 C7.39056421 95.81137177 1.58203345 101.93907781 -5.58203125 106.20703125 C-6.24203125 106.20703125 -6.90203125 106.20703125 -7.58203125 106.20703125 C-7.58203125 106.86703125 -7.58203125 107.52703125 -7.58203125 108.20703125 C-19.02050582 114.87947475 -30.99491237 116.56866744 -44.01953125 116.64453125 C-45.02564453 116.65452148 -46.03175781 116.66451172 -47.06835938 116.67480469 C-53.45531586 116.60073462 -58.66942664 115.58682357 -64.58203125 113.20703125 C-65.64550781 112.81902344 -66.70898438 112.43101562 -67.8046875 112.03125 C-74.17833425 109.48003789 -79.34766326 106.63348592 -84.58203125 102.20703125 C-85.175 101.75714844 -85.76796875 101.30726563 -86.37890625 100.84375 C-91.58846605 96.75217096 -94.9355859 91.67669927 -98.58203125 86.20703125 C-99.07960938 85.60632813 -99.5771875 85.005625 -100.08984375 84.38671875 C-102.20148651 81.30217252 -103.41875971 77.939896 -104.70703125 74.45703125 C-104.97128906 73.77898437 -105.23554687 73.1009375 -105.5078125 72.40234375 C-111.31160341 56.90592741 -109.18964662 39.46106557 -103.08203125 24.41015625 C-100.73504449 19.39836161 -98.03483632 14.54695501 -94.58203125 10.20703125 C-93.92203125 10.20703125 -93.26203125 10.20703125 -92.58203125 10.20703125 C-92.32550781 9.61664063 -92.06898437 9.02625 -91.8046875 8.41796875 C-85.54105427 -2.90860125 -69.53917095 -9.38145967 -57.8828125 -12.9140625 C-37.2012741 -17.84466293 -17.01592069 -11.81589651 0 0 Z " fill="#C8C7C3" transform="translate(207.58203125,29.79296875)"/>
</svg>
